<svg width="260" height="260" viewBox="0 0 260 260" fill="none" xmlns="http://www.w3.org/2000/svg">
<circle cx="130" cy="130" r="130" fill="#008080"/>
<mask id="mask0_794_456" style="mask-type:alpha" maskUnits="userSpaceOnUse" x="0" y="0" width="260" height="260">
<circle cx="130" cy="130" r="130" fill="#D9D9D9"/>
</mask>
<g mask="url(#mask0_794_456)">
<circle cx="77" cy="74.5" r="19.5" fill="white"/>
<circle cx="175" cy="74.5" r="19.5" fill="white"/>
<path d="M84.5 279C99 251.5 186.5 245.5 217 199C234.901 171.708 243.5 145.5 229.512 106.5C227.093 100.298 223.944 94.1171 220 88C215.826 100.526 195.901 106.487 127.5 117C65.3256 144.435 52.5 160 -6 117V192L84.5 279Z" fill="#C1DFDF"/>
<path d="M97.9995 111.784C62.9261 106.297 24 128 -6 174V192L24.8809 221.9C25.1567 222.168 25.6342 222.041 25.7629 221.68C26.7827 218.814 31.1616 208.875 45.4995 198.783C63.0022 186.464 80.4995 187.783 121.5 204.818C165 216.283 198 184.465 203.5 174C203 169.534 188.631 176.423 163.5 182.818C160.5 182.818 152.03 183.783 148.5 179.318C112.5 133.783 90.9995 150.283 81.4995 143.283C81.4995 139.783 119 141.818 134.5 139.783C150 137.749 175 121.283 173.5 116.783C172 112.283 171.5 123.282 97.9995 111.784Z" fill="white"/>
<path d="M164.484 131.867C171.192 129.95 174.846 123.646 175.425 113.804C175.464 113.148 174.858 112.647 174.214 112.782C166.69 114.362 154.261 115.502 149 114.323C143.431 113.076 159.484 108.063 159.484 108.063C181.5 100.5 214.483 104 219.984 87C231.241 112.017 215.192 161.36 178.204 163.956C177.778 163.985 177.376 163.734 177.216 163.338L164.484 131.867Z" fill="white"/>
<path d="M81.2257 243.455C102.044 222.662 130.725 236.046 164 215.5C129.494 248.438 94.2089 230.488 81.2257 243.455Z" fill="#749696"/>
<path d="M187.323 134.18C180.945 122.897 165.421 118.832 150.67 133.327C150.226 133.763 149.487 133.714 149.1 133.227C138.408 119.775 118.677 121.96 112.323 134.18C99.9403 157.997 131.228 177.314 149.314 188.368C149.632 188.562 150.028 188.556 150.347 188.363C180.205 170.303 198.259 153.12 187.323 134.18Z" fill="#008080"/>
<path d="M162.5 182.535C159.5 182.535 151.03 183.5 147.5 179.035C111.5 133.5 90 150 80.5 143L120.5 204.535C164 216 198 184.465 203.5 174C203 169.535 187.632 176.14 162.5 182.535Z" fill="white"/>
<path d="M175 201.5C122.5 243 72 167 34 230.999L68.5 264C85 209.5 152.5 247 175 201.5Z" fill="#8EAAAA"/>
<path d="M175 202C137 247 94 195 54 209.5C86.5 189.5 129.5 232.5 175 202Z" fill="#F2EFEF"/>
</g>
</svg>
