<svg width="43" height="43" viewBox="0 0 43 43" fill="none" xmlns="http://www.w3.org/2000/svg">
<path d="M29.5 7.5C29.5 5.63623 29.5 4.70435 29.8045 3.96927C30.2105 2.98915 30.9892 2.21046 31.9693 1.80448C32.7044 1.5 33.6362 1.5 35.5 1.5C37.3638 1.5 38.2956 1.5 39.0307 1.80448C40.0108 2.21046 40.7895 2.98915 41.1955 3.96927C41.5 4.70435 41.5 5.63623 41.5 7.5V15.5C41.5 17.3638 41.5 18.2956 41.1955 19.0307C40.7895 20.0108 40.0108 20.7895 39.0307 21.1955C38.2956 21.5 37.3638 21.5 35.5 21.5C33.6362 21.5 32.7044 21.5 31.9693 21.1955C30.9892 20.7895 30.2105 20.0108 29.8045 19.0307C29.5 18.2956 29.5 17.3638 29.5 15.5V7.5Z" stroke="#141B34" stroke-width="3"/>
<path d="M29.5 35.5C29.5 33.6362 29.5 32.7044 29.8045 31.9693C30.2105 30.9892 30.9892 30.2105 31.9693 29.8045C32.7044 29.5 33.6362 29.5 35.5 29.5C37.3638 29.5 38.2956 29.5 39.0307 29.8045C40.0108 30.2105 40.7895 30.9892 41.1955 31.9693C41.5 32.7044 41.5 33.6362 41.5 35.5C41.5 37.3638 41.5 38.2956 41.1955 39.0307C40.7895 40.0108 40.0108 40.7895 39.0307 41.1955C38.2956 41.5 37.3638 41.5 35.5 41.5C33.6362 41.5 32.7044 41.5 31.9693 41.1955C30.9892 40.7895 30.2105 40.0108 29.8045 39.0307C29.5 38.2956 29.5 37.3638 29.5 35.5Z" stroke="#141B34" stroke-width="3"/>
<path d="M1.5 29.5C1.5 25.7288 1.5 23.8431 2.67157 22.6716C3.84315 21.5 5.72876 21.5 9.5 21.5H13.5C17.2712 21.5 19.1569 21.5 20.3284 22.6716C21.5 23.8431 21.5 25.7288 21.5 29.5V33.5C21.5 37.2712 21.5 39.1569 20.3284 40.3284C19.1569 41.5 17.2712 41.5 13.5 41.5H9.5C5.72876 41.5 3.84315 41.5 2.67157 40.3284C1.5 39.1569 1.5 37.2712 1.5 33.5V29.5Z" stroke="#141B34" stroke-width="3"/>
<path d="M1.5 7.5C1.5 5.63623 1.5 4.70435 1.80448 3.96927C2.21046 2.98915 2.98915 2.21046 3.96927 1.80448C4.70435 1.5 5.63623 1.5 7.5 1.5H15.5C17.3638 1.5 18.2956 1.5 19.0307 1.80448C20.0108 2.21046 20.7895 2.98915 21.1955 3.96927C21.5 4.70435 21.5 5.63623 21.5 7.5C21.5 9.36377 21.5 10.2956 21.1955 11.0307C20.7895 12.0108 20.0108 12.7895 19.0307 13.1955C18.2956 13.5 17.3638 13.5 15.5 13.5H7.5C5.63623 13.5 4.70435 13.5 3.96927 13.1955C2.98915 12.7895 2.21046 12.0108 1.80448 11.0307C1.5 10.2956 1.5 9.36377 1.5 7.5Z" stroke="#141B34" stroke-width="3"/>
</svg>
